<?xml version="1.0" standalone="no"?>
<!DOCTYPE svg PUBLIC "-//W3C//DTD SVG 20010904//EN"
 "http://www.w3.org/TR/2001/REC-SVG-20010904/DTD/svg10.dtd">
<svg version="1.0" xmlns="http://www.w3.org/2000/svg"
 width="900.000000pt" height="1008.000000pt" viewBox="0 0 900.000000 1008.000000"
 preserveAspectRatio="xMidYMid meet">
<metadata>
Created by potrace 1.10, written by Peter Selinger 2001-2011
</metadata>
<g transform="translate(0.000000,1008.000000) scale(0.100000,-0.100000)"
fill="#000000" stroke="none">
<path d="M4385 9925 c-235 -38 -455 -158 -668 -365 -223 -215 -322 -233 -742
-135 -133 31 -216 46 -340 60 -167 19 -245 19 -364 -1 -247 -43 -424 -171
-528 -383 -58 -118 -62 -127 -113 -273 -110 -321 -205 -465 -357 -540 -59 -29
-69 -30 -136 -25 -48 4 -111 20 -187 47 -245 89 -329 92 -454 18 -203 -122
-339 -408 -391 -828 -34 -271 -6 -603 81 -937 29 -114 84 -291 112 -360 11
-26 34 -86 52 -133 81 -214 276 -604 443 -885 252 -426 643 -946 1109 -1477
209 -237 328 -376 417 -488 50 -63 114 -143 141 -177 45 -55 64 -103 42 -103
-4 0 -30 14 -58 32 -134 86 -349 146 -454 126 -72 -13 -100 -29 -146 -81 -69
-78 -89 -129 -89 -232 0 -76 4 -97 25 -139 34 -68 110 -149 173 -184 62 -35
176 -72 221 -72 18 0 40 -6 50 -13 18 -13 18 -14 -2 -33 -11 -11 -70 -36 -130
-57 -129 -43 -170 -46 -327 -16 -183 34 -287 49 -346 49 -219 1 -382 -119
-434 -317 -26 -100 -13 -210 38 -312 29 -58 115 -135 174 -156 80 -27 95 -38
141 -95 110 -136 432 -479 558 -595 221 -204 436 -368 609 -465 277 -157 442
-227 680 -291 117 -31 130 -33 695 -59 129 -7 271 -16 315 -21 112 -13 1630
-12 1714 1 36 6 109 18 161 26 52 8 189 38 304 65 525 127 797 271 1119 593
220 220 422 498 665 916 117 201 120 205 158 213 125 27 163 51 203 132 52
104 1 282 -112 399 -87 89 -243 156 -361 156 -99 0 -234 -46 -351 -120 -22
-13 -48 -29 -57 -35 -9 -5 -55 -38 -102 -72 -193 -143 -323 -184 -491 -156
-49 8 -155 37 -235 63 -212 71 -262 82 -375 82 -104 0 -226 -22 -340 -62 -33
-12 -76 -26 -95 -32 -19 -5 -39 -14 -45 -18 -5 -4 -28 -13 -50 -20 -79 -23
-130 24 -106 97 39 126 280 243 496 243 110 -1 159 -10 465 -94 256 -70 494
15 596 213 63 122 37 241 -75 351 -61 61 -71 67 -131 78 -54 10 -78 10 -140
-2 -97 -19 -201 -57 -320 -116 -150 -75 -233 -102 -320 -104 -69 -1 -75 1 -78
20 -2 16 16 37 70 84 253 215 602 573 874 897 554 659 1141 1673 1345 2323 12
36 29 92 40 125 29 94 78 316 95 433 20 132 22 420 5 556 -22 172 -65 323
-136 472 -111 235 -254 382 -440 453 -61 23 -244 54 -390 66 -267 22 -416 97
-498 248 -25 46 -97 277 -97 310 0 26 -60 198 -94 267 -42 88 -163 210 -226
229 -57 17 -160 16 -227 -3 -61 -16 -174 -75 -278 -145 -138 -93 -191 -115
-270 -115 -58 0 -80 5 -131 31 -86 45 -201 138 -414 337 -271 255 -380 341
-526 415 -216 109 -414 147 -609 116z m346 -155 c219 -73 387 -190 751 -522
272 -248 355 -311 463 -348 142 -49 261 -15 487 139 205 139 304 169 390 118
98 -57 183 -220 233 -447 52 -232 108 -371 179 -443 92 -91 219 -133 528 -172
322 -40 447 -82 537 -180 68 -76 149 -247 191 -410 10 -38 23 -83 28 -100 66
-193 75 -497 26 -780 -16 -89 -23 -122 -65 -285 -43 -168 -160 -501 -196 -555
-7 -11 -13 -25 -13 -33 0 -31 -334 -676 -410 -792 -5 -8 -17 -28 -26 -45 -9
-16 -31 -52 -49 -80 -18 -27 -63 -97 -100 -155 -60 -93 -109 -168 -199 -305
-40 -61 -87 -127 -126 -175 -89 -110 -128 -159 -167 -212 -59 -79 -227 -269
-374 -423 -68 -71 -144 -152 -169 -179 -47 -51 -223 -210 -475 -431 -111 -97
-115 -102 -115 -141 0 -29 7 -43 37 -70 20 -19 56 -44 80 -55 24 -11 43 -24
43 -28 0 -4 -35 -15 -78 -23 -141 -28 -331 -134 -421 -235 -101 -113 -128
-193 -86 -256 29 -44 12 -51 -99 -39 -168 19 -256 49 -541 188 -211 102 -344
146 -465 152 -111 5 -248 -16 -342 -52 -88 -34 -289 -94 -373 -111 -157 -32
-157 -32 -310 25 -77 29 -151 56 -165 61 -14 4 -83 28 -154 53 -116 41 -220
68 -414 107 -46 9 -120 10 -270 5 -343 -11 -478 23 -558 143 -17 26 -26 58
-31 103 -8 90 -1 110 49 138 37 21 56 25 128 25 81 0 91 -3 207 -54 98 -42
130 -62 166 -99 24 -26 70 -64 103 -84 32 -21 87 -58 122 -83 75 -54 119 -59
157 -20 32 31 33 78 3 125 -13 19 -27 45 -33 56 -13 27 -109 181 -152 243 -98
140 -124 175 -203 266 -47 55 -107 128 -133 162 -26 34 -53 68 -60 75 -6 7
-37 43 -67 78 -30 36 -79 91 -110 124 -30 32 -60 63 -65 70 -24 26 -143 165
-175 206 -19 23 -50 59 -69 79 -18 20 -45 52 -60 71 -14 19 -28 37 -31 40 -4
3 -44 52 -90 110 -46 58 -100 125 -120 150 -20 25 -58 77 -85 115 -53 76 -67
96 -163 231 -63 90 -159 231 -177 262 -6 9 -46 76 -91 147 -69 111 -120 199
-180 315 -14 26 -8 45 6 20 27 -48 231 -314 260 -340 3 -3 19 -23 35 -45 17
-22 32 -42 36 -45 5 -5 141 -181 184 -239 36 -49 249 -316 304 -381 220 -262
317 -367 560 -610 241 -240 387 -374 587 -537 126 -103 373 -273 544 -376 130
-77 387 -203 463 -226 18 -6 59 -20 92 -31 111 -40 319 -87 436 -100 143 -16
426 -8 554 15 197 35 411 99 585 175 111 49 294 142 342 173 18 12 62 40 98
61 143 86 265 173 468 334 37 29 107 80 156 114 87 59 122 90 271 236 61 59
224 232 325 342 39 43 339 413 400 494 133 176 416 598 499 744 20 35 42 73
49 85 26 46 -7 87 -45 56 -8 -7 -49 -63 -90 -124 -107 -160 -182 -266 -242
-343 -28 -37 -76 -101 -107 -142 -53 -72 -74 -97 -197 -240 -31 -36 -99 -114
-150 -175 -108 -127 -127 -145 -127 -122 0 9 5 19 10 22 23 14 43 73 46 130 1
33 5 108 9 166 6 85 4 117 -10 165 -21 76 -64 143 -121 189 -24 20 -44 40 -44
45 0 5 14 25 30 44 17 18 42 60 57 92 22 49 27 73 27 140 0 72 -4 89 -32 147
-39 80 -95 131 -195 181 -60 29 -90 37 -167 45 -126 12 -506 15 -513 4 -3 -5
-8 -90 -11 -188 -3 -99 -9 -252 -15 -340 -22 -324 -31 -565 -31 -775 0 -212 0
-216 27 -278 15 -34 35 -65 45 -68 10 -3 66 6 125 21 351 85 463 109 508 111
28 1 55 2 61 3 17 2 146 90 160 109 7 9 16 13 21 9 11 -11 -555 -564 -605
-591 -9 -5 -42 -30 -72 -55 -30 -26 -81 -67 -114 -91 -32 -25 -86 -67 -120
-93 -126 -99 -364 -248 -569 -355 -106 -56 -364 -162 -462 -192 -262 -77 -320
-85 -610 -85 -269 1 -322 8 -541 70 -105 30 -313 114 -388 156 -11 6 -51 28
-90 49 -122 64 -268 151 -349 206 -43 30 -82 54 -87 54 -4 0 -28 16 -52 36
-53 43 -54 44 -153 119 -111 84 -273 214 -385 311 -133 114 -490 471 -710 709
-101 110 -187 202 -190 205 -51 46 -485 566 -605 725 -9 11 -30 38 -48 61 -18
22 -56 72 -85 111 -59 80 -77 91 -104 66 -11 -10 -22 -13 -28 -7 -5 5 -50 98
-99 207 -86 187 -192 471 -212 565 -5 24 -11 48 -15 53 -9 15 -32 110 -49 204
-14 79 -20 105 -66 295 -20 82 -23 120 -22 285 1 467 128 807 338 907 87 41
152 39 299 -11 262 -89 413 -78 574 45 69 52 116 116 173 234 67 140 69 144
173 425 62 166 95 224 166 296 106 107 218 152 424 170 145 13 303 -1 481 -41
251 -57 436 -90 510 -90 126 0 252 63 395 195 219 204 318 275 456 331 109 44
172 54 307 49 86 -4 126 -11 198 -35z m1889 -4420 c0 -20 -8 -35 -25 -46 -33
-21 -55 -12 -55 24 0 36 16 52 52 52 24 0 28 -4 28 -30z m169 -636 c20 -15 23
-23 19 -66 -4 -34 -14 -60 -35 -86 -37 -46 -147 -104 -200 -106 l-38 -1 -3 95
c-4 121 3 159 31 170 12 5 63 9 112 9 68 1 96 -3 114 -15z m324 -1866 c10 -5
36 -26 58 -45 33 -30 39 -42 39 -75 0 -74 -57 -153 -138 -188 -55 -25 -179
-27 -260 -5 -63 17 -344 107 -352 113 -9 6 25 22 60 28 19 3 73 21 120 41 86
35 108 45 235 104 39 18 84 35 100 39 35 9 112 2 138 -12z m1103 -519 c86 -42
136 -96 145 -156 4 -26 10 -65 14 -85 10 -51 -1 -87 -28 -93 -12 -3 -48 5 -82
19 -74 30 -196 42 -284 27 -87 -14 -144 -54 -291 -201 -140 -142 -177 -163
-290 -163 -94 0 -144 17 -370 126 -233 113 -276 127 -392 127 -51 0 -122 -5
-158 -10 -80 -12 -426 -124 -555 -180 -65 -29 -119 -46 -235 -76 -80 -20 -119
-24 -243 -24 -200 0 -290 20 -579 128 -216 81 -329 102 -508 91 -93 -5 -113
-10 -180 -42 -41 -20 -97 -49 -125 -66 -155 -93 -225 -125 -319 -146 -41 -9
-242 -7 -301 4 -168 29 -260 55 -610 175 -89 30 -215 67 -280 82 -252 57 -487
26 -780 -103 -151 -67 -292 -103 -401 -103 -141 0 -244 105 -244 247 0 50 5
67 34 113 39 62 77 95 156 136 49 26 63 28 145 27 57 -1 118 -10 165 -23 164
-46 201 -52 325 -47 146 5 263 37 310 87 100 104 352 156 560 115 50 -10 194
-53 320 -96 324 -109 451 -132 621 -110 109 15 148 25 394 109 l195 67 135 0
c143 -1 172 -8 214 -54 11 -12 26 -21 35 -21 9 -1 34 -9 56 -20 22 -11 43 -19
48 -20 4 0 94 -43 200 -96 224 -111 369 -162 473 -166 58 -2 76 1 92 15 12 11
48 22 88 28 91 13 156 31 294 80 398 142 421 144 700 58 74 -23 162 -49 195
-58 33 -10 82 -30 108 -45 47 -28 51 -28 170 -24 120 4 124 5 226 51 119 54
341 198 393 256 66 74 160 104 303 95 62 -4 93 -11 141 -35z m-121 -480 c10
-10 -27 -87 -95 -199 -22 -36 -46 -78 -54 -95 -8 -16 -42 -70 -75 -119 -34
-48 -61 -96 -61 -105 0 -25 -40 -89 -126 -202 -73 -98 -198 -247 -216 -260 -4
-3 -50 -46 -101 -95 -122 -118 -186 -171 -301 -248 -245 -164 -539 -275 -886
-335 -69 -12 -162 -28 -207 -36 -180 -33 -177 -11 10 83 78 39 156 84 172 99
17 15 44 37 60 47 51 34 441 404 493 468 23 30 32 51 32 79 0 74 -75 58 -153
-35 -51 -59 -313 -274 -503 -413 -185 -135 -349 -239 -481 -305 l-125 -62
-192 -12 c-153 -10 -506 -19 -599 -15 -13 1 -17 7 -15 22 2 14 20 27 60 43 73
30 165 92 256 175 40 36 93 80 118 97 94 66 229 279 328 518 9 21 16 60 16 86
0 43 -3 48 -26 54 -17 5 -35 1 -50 -9 -34 -22 -84 -104 -84 -138 0 -52 -40
-125 -157 -284 -80 -109 -156 -186 -259 -263 -51 -39 -95 -70 -98 -70 -3 0
-27 -14 -53 -30 -119 -76 -389 -127 -617 -117 -78 3 -153 12 -186 22 -71 21
-263 122 -343 179 -147 105 -429 402 -468 493 -21 48 -76 124 -178 243 -86
101 -120 130 -152 130 -47 0 -47 -50 0 -107 41 -49 114 -151 167 -232 27 -40
56 -84 65 -98 10 -14 34 -44 56 -67 51 -55 131 -158 174 -225 22 -35 55 -68
94 -94 33 -22 85 -62 115 -87 30 -26 76 -61 101 -78 112 -75 93 -87 -96 -62
-259 35 -462 96 -705 213 -152 74 -258 137 -432 259 -167 118 -416 350 -673
628 -144 156 -183 205 -172 217 11 11 135 30 164 26 24 -4 68 8 160 44 292
114 309 118 528 117 154 0 192 -3 262 -22 108 -29 317 -98 473 -156 390 -145
637 -152 884 -25 56 28 135 71 176 95 185 106 306 122 520 66 102 -27 301 -95
355 -122 99 -49 301 -94 425 -93 172 0 256 21 680 172 217 77 218 78 310 96
209 41 380 23 555 -60 289 -136 331 -149 465 -150 96 0 110 2 164 29 60 29
164 125 261 240 62 73 131 110 190 101 22 -3 44 -10 50 -16z"/>
<path d="M4857 8871 c-167 -5 -210 -9 -217 -21 -5 -8 -7 -41 -4 -75 2 -33 9
-176 14 -318 9 -240 12 -262 34 -310 13 -29 31 -59 40 -66 11 -10 74 -18 189
-27 95 -7 205 -15 245 -18 106 -8 112 -1 112 154 0 166 4 162 -178 155 -75 -3
-148 -8 -162 -10 -32 -7 -66 16 -57 39 4 9 22 24 42 33 39 19 48 39 43 99 -3
34 -8 41 -40 57 -25 11 -38 24 -38 37 0 11 3 20 8 21 4 0 56 3 116 5 143 5
146 8 146 124 0 97 -9 118 -55 123 -16 2 -124 1 -238 -2z"/>
<path d="M3500 8854 c-52 -7 -144 -20 -205 -28 -60 -8 -141 -18 -180 -21 -78
-7 -144 -22 -146 -33 -9 -43 -4 -162 6 -182 8 -14 22 -42 31 -63 l17 -38 86 3
86 3 12 -165 c11 -140 17 -174 40 -227 18 -40 34 -64 47 -67 12 -3 65 -6 119
-6 144 0 137 -14 137 273 0 168 3 236 12 245 7 7 33 12 58 12 74 0 80 13 80
161 0 84 -4 129 -12 137 -15 15 -63 14 -188 -4z"/>
<path d="M4395 8860 c-100 -15 -165 -32 -180 -46 -12 -12 -15 -45 -15 -159 0
-155 -8 -180 -54 -173 -20 3 -21 10 -26 145 -6 157 -13 176 -67 175 -131 -1
-234 -9 -243 -18 -8 -8 -11 -118 -12 -340 0 -297 2 -333 18 -369 33 -73 37
-75 139 -75 124 0 133 7 141 115 8 98 15 112 58 120 43 9 74 -8 82 -43 3 -15
14 -45 25 -68 10 -23 19 -46 19 -52 0 -27 45 -42 125 -42 57 0 87 5 103 16
l22 15 0 385 c0 247 -4 392 -10 405 -12 21 -36 22 -125 9z"/>
<path d="M1017 7893 c-4 -3 -7 -61 -7 -129 0 -94 4 -130 17 -156 9 -18 19 -40
23 -48 4 -8 27 -21 51 -29 96 -29 113 -42 121 -91 9 -60 8 -833 -1 -1130 -7
-217 -6 -237 11 -266 10 -17 18 -39 18 -47 0 -9 11 -24 24 -32 21 -14 54 -16
210 -13 135 2 189 7 198 16 10 10 14 78 18 270 4 219 7 257 20 257 16 0 17 -1
125 -230 126 -265 215 -433 245 -460 21 -19 21 -19 355 49 39 8 86 17 106 21
20 3 44 14 54 25 24 27 16 44 -83 172 -42 56 -90 119 -106 142 -15 23 -47 64
-70 93 -22 28 -108 140 -189 250 -81 109 -157 210 -169 224 -13 17 -18 34 -14
46 4 11 44 68 89 125 76 98 283 366 352 458 142 188 214 281 242 313 18 20 33
48 33 61 0 45 -16 48 -202 42 l-173 -6 -145 -148 c-80 -82 -183 -188 -228
-236 -74 -78 -86 -87 -98 -74 -13 13 -14 30 -4 120 13 116 2 236 -25 288 -20
38 -78 76 -135 89 -116 25 -645 53 -663 34z"/>
<path d="M2709 7704 c-11 -13 -15 -132 -20 -603 -4 -322 -8 -671 -9 -776 -3
-174 -1 -194 18 -237 11 -26 30 -51 41 -57 11 -6 64 -11 119 -11 152 0 143
-17 147 275 2 135 8 252 14 267 11 30 62 61 93 56 21 -3 49 -78 112 -298 29
-101 77 -207 104 -227 12 -10 90 -13 313 -13 357 0 329 -13 329 151 0 145 -4
149 -136 160 -122 10 -165 18 -182 32 -8 6 -45 73 -83 148 -37 76 -73 140 -79
144 -24 15 -6 51 58 120 141 151 180 322 126 555 -28 123 -85 191 -209 250
-131 62 -256 80 -551 80 -165 0 -193 -2 -205 -16z m479 -374 c51 -24 66 -36
78 -66 31 -75 -5 -149 -105 -213 -53 -34 -82 -39 -101 -16 -25 30 -8 276 21
312 17 19 37 16 107 -17z"/>
<path d="M5160 7683 c-34 -13 -79 -56 -89 -85 -15 -44 -14 -122 4 -164 22 -53
107 -172 171 -239 253 -265 370 -397 395 -447 55 -107 -25 -261 -164 -317 -56
-23 -59 -23 -102 -7 -78 30 -130 113 -91 145 9 7 54 13 108 15 106 2 149 19
173 66 27 53 20 95 -25 144 -64 70 -85 76 -222 65 -65 -4 -148 -14 -185 -20
-115 -20 -203 -74 -233 -144 -21 -48 -37 -62 -52 -47 -7 7 -10 166 -9 479 2
454 2 469 -18 489 -19 21 -25 21 -198 17 -98 -3 -185 -9 -195 -14 -14 -8 -15
-33 -11 -251 8 -345 -13 -502 -74 -570 -23 -25 -55 -22 -77 9 -29 40 -37 157
-34 502 l3 315 -35 20 c-29 18 -56 22 -165 24 -158 5 -163 2 -176 -110 -11
-99 -11 -592 1 -701 7 -74 15 -99 47 -155 58 -102 88 -113 403 -143 63 -6 121
-16 128 -21 7 -7 12 -36 12 -77 0 -44 5 -74 15 -87 8 -10 15 -26 15 -35 0 -9
8 -26 18 -38 16 -19 28 -21 162 -22 186 -1 181 -5 178 162 -2 87 0 121 10 131
18 17 39 -11 54 -71 15 -57 114 -207 169 -255 58 -50 124 -83 217 -108 64 -18
107 -21 257 -22 165 -1 185 1 237 22 67 27 146 95 181 155 82 139 80 378 -4
597 -61 160 -200 330 -349 429 -47 31 -83 61 -80 66 3 6 70 9 180 6 l175 -3
24 26 c43 46 71 31 71 -39 0 -18 14 -60 30 -94 l31 -61 144 0 c117 0 146 -3
159 -16 14 -14 16 -73 16 -503 l0 -489 24 -54 c14 -31 32 -58 41 -62 9 -3 74
-6 144 -6 109 0 130 3 143 18 13 15 16 98 22 600 6 618 7 632 54 646 14 5 229
46 239 46 1 0 9 12 16 28 10 18 14 56 12 116 -3 105 -14 121 -80 112 -22 -4
-200 -10 -395 -15 -441 -12 -601 -20 -617 -33 -7 -6 -13 -26 -13 -45 l0 -35
-55 50 c-62 57 -112 77 -240 98 -89 13 -463 19 -495 7z"/>
<path d="M7935 7603 l-60 -4 -105 -107 c-108 -110 -336 -383 -378 -453 -13
-21 -30 -39 -38 -39 -8 0 -35 33 -60 73 -91 143 -119 161 -238 151 -74 -6 -87
-10 -115 -36 -39 -36 -51 -65 -51 -121 0 -60 12 -96 67 -195 89 -163 142 -285
143 -327 0 -44 -8 -58 -121 -227 -117 -174 -209 -358 -209 -419 0 -41 56 -137
91 -154 15 -8 41 -15 57 -15 63 0 113 52 467 477 33 39 184 219 335 399 151
179 317 377 369 438 177 211 211 264 211 333 0 90 -169 236 -267 231 -21 -1
-65 -3 -98 -5z"/>
<path d="M4025 5596 c-18 -13 -19 -28 -17 -247 3 -238 17 -738 31 -1064 7
-176 8 -181 37 -229 38 -63 81 -86 177 -93 60 -5 81 -2 119 15 80 35 83 45 86
293 4 228 7 244 47 215 12 -9 24 -53 42 -157 14 -79 31 -155 38 -169 8 -14 21
-40 29 -58 24 -51 55 -58 321 -72 309 -16 342 -14 369 23 28 38 29 196 1 227
-22 24 -92 45 -200 60 -94 12 -202 60 -263 115 -51 45 -152 194 -152 222 0 15
18 33 57 60 32 21 75 61 98 89 44 56 71 78 85 69 6 -4 10 -39 10 -79 0 -45 8
-97 20 -137 24 -75 122 -224 168 -255 41 -28 160 -60 336 -90 77 -13 144 -24
148 -24 4 0 32 -22 61 -48 97 -88 179 -91 238 -10 39 55 47 105 64 408 26 488
29 641 13 680 -38 89 -132 154 -256 175 -111 20 -457 37 -573 29 -115 -8 -126
-17 -115 -88 8 -44 78 -161 107 -176 10 -6 87 -14 171 -20 220 -13 277 -35
250 -94 -16 -35 -50 -41 -162 -26 -104 14 -249 9 -313 -10 -21 -6 -53 -25 -72
-42 -54 -47 -62 -36 -67 89 -4 124 -18 163 -80 221 -125 119 -379 196 -679
207 -123 4 -159 2 -174 -9z m394 -331 c73 -23 101 -52 101 -109 0 -77 -69
-134 -181 -150 -32 -5 -49 -3 -57 6 -13 16 -20 248 -8 267 10 16 62 11 145
-14z m1211 -465 c24 -24 25 -51 4 -91 -30 -59 -156 -89 -223 -54 -49 25 -67
109 -31 145 17 17 33 20 125 20 92 0 108 -3 125 -20z"/>
<path d="M3414 5563 c-6 -7 -56 -88 -110 -180 -53 -92 -124 -213 -156 -268
-33 -55 -63 -107 -67 -115 -5 -8 -17 -15 -27 -15 -23 0 -28 21 -49 207 -26
231 -46 282 -122 314 -59 25 -510 13 -580 -16 -21 -9 -23 -16 -23 -94 0 -54 5
-95 14 -113 8 -15 17 -36 20 -46 6 -18 31 -31 78 -41 15 -4 35 -17 44 -31 15
-23 52 -215 109 -565 14 -85 31 -191 39 -235 8 -44 29 -168 47 -275 25 -156
38 -208 62 -258 17 -35 35 -66 39 -68 13 -8 293 -7 317 1 11 3 23 15 26 25 7
22 -10 292 -25 408 -18 132 23 150 80 37 20 -39 100 -177 179 -307 158 -263
157 -263 240 -235 25 8 71 22 101 30 171 46 284 83 296 95 8 7 14 23 14 34 0
13 -121 140 -355 373 -209 207 -355 360 -355 370 0 10 36 74 80 142 44 68 80
126 80 127 0 2 41 68 90 147 50 79 105 168 123 197 17 29 65 103 104 165 110
170 105 180 -102 195 -167 11 -195 11 -211 -5z"/>
<path d="M3605 670 c3 -5 15 -10 26 -10 11 0 17 5 14 10 -3 6 -15 10 -26 10
-11 0 -17 -4 -14 -10z"/>
</g>
</svg>
